<svg id="Groupe_8" data-name="Groupe 8" xmlns="http://www.w3.org/2000/svg" width="15.033" height="15.047" viewBox="0 0 15.033 15.047">
  <path id="Tracé_7" data-name="Tracé 7" d="M15.034,7.036a7.523,7.523,0,1,0-7.506,7.989h4.061a3.449,3.449,0,0,0,3.445-3.445V7.095ZM13.154,11.58a1.566,1.566,0,0,1-1.566,1.566H7.528A5.663,5.663,0,0,1,3.311,11.26,5.591,5.591,0,0,1,1.916,6.854,5.661,5.661,0,0,1,6.795,1.917a5.941,5.941,0,0,1,.735-.046,5.6,5.6,0,0,1,3.595,1.294,5.661,5.661,0,0,1,2.03,3.961Z" transform="translate(-0.001 0.022)" fill="#f90"/>
  <path id="Tracé_8" data-name="Tracé 8" d="M8.94,9.879h1.879a.94.94,0,1,0,0-1.879H8.94a.94.94,0,1,0,0,1.879Z" transform="translate(-2.989 -2.975)" fill="#f90"/>
  <path id="Tracé_9" data-name="Tracé 9" d="M13.324,13H8.94a.94.94,0,1,0,0,1.879h4.385a.94.94,0,1,0,0-1.879Z" transform="translate(-2.989 -4.843)" fill="#f90"/>
</svg>
