<svg id="fi-br-comment-alt" xmlns="http://www.w3.org/2000/svg" width="24.362" height="24.135" viewBox="0 0 24.362 24.135">
  <path id="Tracé_1" data-name="Tracé 1" d="M18.779,0H5.583A5.59,5.59,0,0,0,0,5.583v9.136A5.59,5.59,0,0,0,5.583,20.3h1.46l4.162,3.48a1.523,1.523,0,0,0,1.953,0l4.162-3.48h1.46a5.59,5.59,0,0,0,5.583-5.583V5.583A5.59,5.59,0,0,0,18.779,0Zm2.538,14.719a2.538,2.538,0,0,1-2.538,2.538H16.766a1.523,1.523,0,0,0-.976.355l-3.609,3.017L8.572,17.612a1.523,1.523,0,0,0-.977-.355H5.583a2.538,2.538,0,0,1-2.538-2.538V5.583A2.538,2.538,0,0,1,5.583,3.045h13.2a2.538,2.538,0,0,1,2.538,2.538Z" fill="#f90"/>
  <path id="Tracé_2" data-name="Tracé 2" d="M7.523,9.045h3.045a1.523,1.523,0,1,0,0-3.045H7.523a1.523,1.523,0,1,0,0,3.045Z" transform="translate(0.09 0.09)" fill="#627d9d"/>
  <path id="Tracé_3" data-name="Tracé 3" d="M16.658,11H7.523a1.523,1.523,0,0,0,0,3.045h9.136a1.523,1.523,0,1,0,0-3.045Z" transform="translate(0.09 0.166)" fill="#627d9d"/>
</svg>
