<svg id="fi-br-time-check" xmlns="http://www.w3.org/2000/svg" width="16.659" height="16.614" viewBox="0 0 16.659 16.614">
  <path id="Tracé_4" data-name="Tracé 4" d="M6.825,14.384a6.24,6.24,0,1,1,7.718-6.063,1.039,1.039,0,1,0,2.078,0A8.311,8.311,0,1,0,6.332,16.4a1.013,1.013,0,0,0,.247.03,1.04,1.04,0,0,0,.246-2.05Z" transform="translate(0.001 -0.001)" fill="#627d9d"/>
  <path id="Tracé_5" data-name="Tracé 5" d="M19.014,15.765a.905.905,0,0,0-1.28,0l-2.888,2.886-1.287-1.364a.905.905,0,0,0-1.28-.026h0a.905.905,0,0,0-.025,1.28l1.558,1.642a1.426,1.426,0,0,0,1.01.447h.022a1.429,1.429,0,0,0,1-.415l3.171-3.17a.905.905,0,0,0,0-1.28Z" transform="translate(-2.621 -4.016)" fill="#627d9d"/>
  <path id="Tracé_6" data-name="Tracé 6" d="M9.269,6.905V9.051l-1.449.905A.905.905,0,0,0,7.534,11.2h0a.905.905,0,0,0,1.248.287L10.514,10.4a1.207,1.207,0,0,0,.566-1.026V6.905a.905.905,0,1,0-1.811,0Z" transform="translate(-2.052 -1.509)" fill="#627d9d"/>
</svg>
