<svg xmlns="http://www.w3.org/2000/svg" xmlns:xlink="http://www.w3.org/1999/xlink" width="194" height="198" viewBox="0 0 194 198">
  <defs>
    <linearGradient id="linear-gradient" x1="0.216" y1="0.461" x2="0.915" y2="0.546" gradientUnits="objectBoundingBox">
      <stop offset="0" stop-color="#ffe600"/>
      <stop offset="0.483" stop-color="#f90"/>
      <stop offset="1" stop-color="#f60"/>
    </linearGradient>
    <linearGradient id="linear-gradient-2" x1="0.5" x2="0.5" y2="1" gradientUnits="objectBoundingBox">
      <stop offset="0.441" stop-color="#f15a24"/>
      <stop offset="0.57" stop-color="#f05224"/>
      <stop offset="0.767" stop-color="#ef3d24"/>
      <stop offset="1" stop-color="#ed1c24"/>
    </linearGradient>
    <linearGradient id="linear-gradient-3" x1="0.5" y1="0" x2="0.5" y2="1" xlink:href="#linear-gradient"/>
  </defs>
  <g id="Groupe_35" data-name="Groupe 35" transform="translate(-91 -152)">
    <g id="Ellipse_1" data-name="Ellipse 1" transform="translate(91 152)" fill="none" stroke="#ffe600" stroke-width="5">
      <circle cx="97" cy="97" r="97" stroke="none"/>
      <circle cx="97" cy="97" r="94.5" fill="none"/>
    </g>
    <g id="Groupe_33" data-name="Groupe 33" transform="translate(29 273)">
      <circle id="Ellipse_3" data-name="Ellipse 3" cx="23" cy="23" r="23" transform="translate(136 31)" fill="#fff"/>
      <g id="fi-br-comment-alt" transform="translate(147 50.111)">
        <path id="Tracé_17" data-name="Tracé 17" d="M18.5,0H5.5A5.507,5.507,0,0,0,0,5.5v9A5.507,5.507,0,0,0,5.5,20H6.938l4.1,3.428a1.5,1.5,0,0,0,1.924,0L17.062,20H18.5A5.507,5.507,0,0,0,24,14.5v-9A5.507,5.507,0,0,0,18.5,0ZM21,14.5A2.5,2.5,0,0,1,18.5,17H16.517a1.5,1.5,0,0,0-.962.35L12,20.322,8.445,17.35A1.5,1.5,0,0,0,7.483,17H5.5A2.5,2.5,0,0,1,3,14.5v-9A2.5,2.5,0,0,1,5.5,3h13A2.5,2.5,0,0,1,21,5.5Z" fill="#ffe600"/>
        <path id="Tracé_18" data-name="Tracé 18" d="M7.5,9h3a1.5,1.5,0,0,0,0-3h-3a1.5,1.5,0,0,0,0,3Z" fill="#f90"/>
        <path id="Tracé_19" data-name="Tracé 19" d="M16.5,11h-9a1.5,1.5,0,0,0,0,3h9a1.5,1.5,0,1,0,0-3Z" fill="#f90"/>
      </g>
    </g>
    <g id="Groupe_34" data-name="Groupe 34" transform="translate(0 -27.715)">
      <text id="BLOG" transform="translate(161 308)" fill="#f90" font-size="19" font-family="ProductSans-Black, Product Sans Black" font-weight="800"><tspan x="0" y="0">BLOG</tspan></text>
      <g id="Groupe_32" data-name="Groupe 32" transform="translate(70.98 -22)">
        <g id="Groupe_31" data-name="Groupe 31">
          <path id="Soustraction_1" data-name="Soustraction 1" d="M40.3-1954v-33.579l-11.653,14.691h-6.4l-11.373-14.248v.025L.092-1999.01V-2004H11.028l14.235,18.2L39.358-2004h11.2v50H40.3Z" transform="translate(91.194 2266.431)" fill="url(#linear-gradient)"/>
          <rect id="Rectangle_13" data-name="Rectangle 13" width="17" height="9" transform="translate(108 303)" fill="url(#linear-gradient-2)"/>
          <rect id="Rectangle_14" data-name="Rectangle 14" width="11.321" height="50" transform="translate(130.432 262.43)" fill="url(#linear-gradient-3)"/>
        </g>
        <path id="Tracé_25" data-name="Tracé 25" d="M102.476,2282.2,91.661,2270.3v42.4h10.815Z" transform="translate(0.092 -2000.271)" fill="#ffe600"/>
      </g>
    </g>
  </g>
</svg>
